<?xml version="1.0" encoding="UTF-8"?><svg id="Layer_2" xmlns="http://www.w3.org/2000/svg" viewBox="0 0 56.37 71.63"><defs><style>.cls-1{fill:#f7931e;}.cls-2{fill:#333;}.cls-3{fill:none;stroke:#333;stroke-linecap:round;stroke-miterlimit:10;}</style></defs><path class="cls-2" d="m52.37,24.82c1.65,0,3,1.35,3,3v39.82c0,1.65-1.35,3-3,3H4c-1.65,0-3-1.35-3-3V27.82c0-1.65,1.35-3,3-3h48.37m0-1H4c-2.2,0-4,1.8-4,4v39.82c0,2.2,1.8,4,4,4h48.37c2.2,0,4-1.8,4-4V27.82c0-2.2-1.8-4-4-4h0Z"/><path class="cls-1" d="m28.19,48.65c-3.24,0-5.88-2.64-5.88-5.88s2.64-5.88,5.88-5.88,5.88,2.64,5.88,5.88-2.64,5.88-5.88,5.88Z"/><path class="cls-2" d="m28.19,37.4c2.96,0,5.38,2.41,5.38,5.38s-2.41,5.38-5.38,5.38-5.38-2.41-5.38-5.38,2.41-5.38,5.38-5.38m0-1c-3.52,0-6.38,2.85-6.38,6.38s2.85,6.38,6.38,6.38,6.38-2.85,6.38-6.38-2.85-6.38-6.38-6.38h0Z"/><line class="cls-3" x1="28.19" y1="48.68" x2="28.19" y2="60.73"/><path class="cls-3" d="m11.48,23.91v-6.77C11.48,7.95,18.93.5,28.12.5s16.64,7.45,16.64,16.64v7.02"/></svg>